<svg xmlns="http://www.w3.org/2000/svg" width="720" height="480" viewBox="0 0 720 480">
<rect width="100%" height="100%" fill="white"/>
<text x="36.00" y="34.00" font-family="Helvetica,Arial,sans-serif" font-size="18" fill="#20242a" text-anchor="start">Realized vs Predicted Displacement</text>
<line x1="72.00" y1="387.00" x2="632.00" y2="387.00" stroke="#20242a" stroke-width="1.00"/>
<line x1="72.00" y1="72.00" x2="72.00" y2="387.00" stroke="#20242a" stroke-width="1.00"/>
<text x="312.00" y="425.00" font-family="Helvetica,Arial,sans-serif" font-size="11" fill="#20242a" text-anchor="start">predicted_displacement</text>
<text x="16.00" y="229.50" font-family="Helvetica,Arial,sans-serif" font-size="11" fill="#20242a" text-anchor="start">measured_displacement</text>
<line x1="72.00" y1="387.00" x2="632.00" y2="72.00" stroke="#edf0f4" stroke-width="2.00"/>
<circle cx="352.00" cy="229.50" r="4.00" fill="#3566a8" stroke="#ffffff" stroke-width="1"/>
<circle cx="352.00" cy="229.50" r="4.00" fill="#3566a8" stroke="#ffffff" stroke-width="1"/>
<circle cx="352.00" cy="229.50" r="4.00" fill="#3566a8" stroke="#ffffff" stroke-width="1"/>
<circle cx="352.00" cy="229.50" r="4.00" fill="#3566a8" stroke="#ffffff" stroke-width="1"/>
<circle cx="352.00" cy="229.50" r="4.00" fill="#3566a8" stroke="#ffffff" stroke-width="1"/>
<circle cx="352.00" cy="229.50" r="4.00" fill="#3566a8" stroke="#ffffff" stroke-width="1"/>
<circle cx="352.00" cy="229.50" r="4.00" fill="#3566a8" stroke="#ffffff" stroke-width="1"/>
<circle cx="352.00" cy="229.50" r="4.00" fill="#3566a8" stroke="#ffffff" stroke-width="1"/>
<circle cx="352.00" cy="229.50" r="4.00" fill="#3566a8" stroke="#ffffff" stroke-width="1"/>
<circle cx="352.00" cy="229.50" r="4.00" fill="#3566a8" stroke="#ffffff" stroke-width="1"/>
<circle cx="352.00" cy="229.50" r="4.00" fill="#3566a8" stroke="#ffffff" stroke-width="1"/>
<circle cx="352.00" cy="229.50" r="4.00" fill="#3566a8" stroke="#ffffff" stroke-width="1"/>
<circle cx="352.00" cy="229.50" r="4.00" fill="#3566a8" stroke="#ffffff" stroke-width="1"/>
<circle cx="352.00" cy="229.50" r="4.00" fill="#3566a8" stroke="#ffffff" stroke-width="1"/>
<circle cx="352.00" cy="229.50" r="4.00" fill="#3566a8" stroke="#ffffff" stroke-width="1"/>
<circle cx="352.00" cy="229.50" r="4.00" fill="#3566a8" stroke="#ffffff" stroke-width="1"/>
<circle cx="352.00" cy="229.50" r="4.00" fill="#3566a8" stroke="#ffffff" stroke-width="1"/>
<circle cx="352.00" cy="229.50" r="4.00" fill="#3566a8" stroke="#ffffff" stroke-width="1"/>
<circle cx="352.00" cy="229.50" r="4.00" fill="#3566a8" stroke="#ffffff" stroke-width="1"/>
<circle cx="352.00" cy="229.50" r="4.00" fill="#3566a8" stroke="#ffffff" stroke-width="1"/>
<circle cx="352.00" cy="229.50" r="4.00" fill="#3566a8" stroke="#ffffff" stroke-width="1"/>
<circle cx="352.00" cy="229.50" r="4.00" fill="#3566a8" stroke="#ffffff" stroke-width="1"/>
<circle cx="352.00" cy="229.50" r="4.00" fill="#3566a8" stroke="#ffffff" stroke-width="1"/>
<circle cx="352.00" cy="229.50" r="4.00" fill="#3566a8" stroke="#ffffff" stroke-width="1"/>
<circle cx="352.00" cy="229.50" r="4.00" fill="#3566a8" stroke="#ffffff" stroke-width="1"/>
<circle cx="352.00" cy="229.50" r="4.00" fill="#3566a8" stroke="#ffffff" stroke-width="1"/>
<circle cx="352.00" cy="229.50" r="4.00" fill="#3566a8" stroke="#ffffff" stroke-width="1"/>
<circle cx="352.00" cy="229.50" r="4.00" fill="#3566a8" stroke="#ffffff" stroke-width="1"/>
<circle cx="352.00" cy="229.50" r="4.00" fill="#3566a8" stroke="#ffffff" stroke-width="1"/>
<circle cx="352.00" cy="229.50" r="4.00" fill="#3566a8" stroke="#ffffff" stroke-width="1"/>
<circle cx="352.00" cy="229.50" r="4.00" fill="#3566a8" stroke="#ffffff" stroke-width="1"/>
<circle cx="352.00" cy="229.50" r="4.00" fill="#3566a8" stroke="#ffffff" stroke-width="1"/>
<circle cx="352.00" cy="229.50" r="4.00" fill="#3566a8" stroke="#ffffff" stroke-width="1"/>
<circle cx="352.00" cy="229.50" r="4.00" fill="#3566a8" stroke="#ffffff" stroke-width="1"/>
<circle cx="352.00" cy="229.50" r="4.00" fill="#3566a8" stroke="#ffffff" stroke-width="1"/>
<circle cx="352.00" cy="229.50" r="4.00" fill="#3566a8" stroke="#ffffff" stroke-width="1"/>
<circle cx="352.00" cy="229.50" r="4.00" fill="#3566a8" stroke="#ffffff" stroke-width="1"/>
<circle cx="352.00" cy="229.50" r="4.00" fill="#3566a8" stroke="#ffffff" stroke-width="1"/>
<circle cx="352.00" cy="229.50" r="4.00" fill="#3566a8" stroke="#ffffff" stroke-width="1"/>
<circle cx="352.00" cy="229.50" r="4.00" fill="#3566a8" stroke="#ffffff" stroke-width="1"/>
<circle cx="352.00" cy="229.50" r="4.00" fill="#3566a8" stroke="#ffffff" stroke-width="1"/>
<circle cx="352.00" cy="229.50" r="4.00" fill="#3566a8" stroke="#ffffff" stroke-width="1"/>
<circle cx="352.00" cy="229.50" r="4.00" fill="#3566a8" stroke="#ffffff" stroke-width="1"/>
<circle cx="352.00" cy="229.50" r="4.00" fill="#3566a8" stroke="#ffffff" stroke-width="1"/>
<circle cx="352.00" cy="229.50" r="4.00" fill="#3566a8" stroke="#ffffff" stroke-width="1"/>
<circle cx="352.00" cy="229.50" r="4.00" fill="#3566a8" stroke="#ffffff" stroke-width="1"/>
<circle cx="352.00" cy="229.50" r="4.00" fill="#3566a8" stroke="#ffffff" stroke-width="1"/>
<circle cx="352.00" cy="229.50" r="4.00" fill="#3566a8" stroke="#ffffff" stroke-width="1"/>
<circle cx="352.00" cy="229.50" r="4.00" fill="#3566a8" stroke="#ffffff" stroke-width="1"/>
<circle cx="352.00" cy="229.50" r="4.00" fill="#3566a8" stroke="#ffffff" stroke-width="1"/>
<circle cx="352.00" cy="229.50" r="4.00" fill="#3566a8" stroke="#ffffff" stroke-width="1"/>
<circle cx="352.00" cy="229.50" r="4.00" fill="#3566a8" stroke="#ffffff" stroke-width="1"/>
<circle cx="352.00" cy="229.50" r="4.00" fill="#3566a8" stroke="#ffffff" stroke-width="1"/>
<circle cx="352.00" cy="229.50" r="4.00" fill="#3566a8" stroke="#ffffff" stroke-width="1"/>
<circle cx="352.00" cy="229.50" r="4.00" fill="#3566a8" stroke="#ffffff" stroke-width="1"/>
<circle cx="352.00" cy="229.50" r="4.00" fill="#3566a8" stroke="#ffffff" stroke-width="1"/>
<circle cx="352.00" cy="229.50" r="4.00" fill="#3566a8" stroke="#ffffff" stroke-width="1"/>
<circle cx="352.00" cy="229.50" r="4.00" fill="#3566a8" stroke="#ffffff" stroke-width="1"/>
<circle cx="352.00" cy="229.50" r="4.00" fill="#3566a8" stroke="#ffffff" stroke-width="1"/>
<circle cx="352.00" cy="229.50" r="4.00" fill="#3566a8" stroke="#ffffff" stroke-width="1"/>
<circle cx="352.00" cy="229.50" r="4.00" fill="#3566a8" stroke="#ffffff" stroke-width="1"/>
<circle cx="352.00" cy="229.50" r="4.00" fill="#3566a8" stroke="#ffffff" stroke-width="1"/>
<circle cx="352.00" cy="229.50" r="4.00" fill="#3566a8" stroke="#ffffff" stroke-width="1"/>
<circle cx="352.00" cy="229.50" r="4.00" fill="#3566a8" stroke="#ffffff" stroke-width="1"/>
<circle cx="352.00" cy="229.50" r="4.00" fill="#3566a8" stroke="#ffffff" stroke-width="1"/>
<circle cx="352.00" cy="229.50" r="4.00" fill="#3566a8" stroke="#ffffff" stroke-width="1"/>
<circle cx="352.00" cy="229.50" r="4.00" fill="#3566a8" stroke="#ffffff" stroke-width="1"/>
<circle cx="352.00" cy="229.50" r="4.00" fill="#3566a8" stroke="#ffffff" stroke-width="1"/>
<circle cx="352.00" cy="229.50" r="4.00" fill="#3566a8" stroke="#ffffff" stroke-width="1"/>
<circle cx="352.00" cy="229.50" r="4.00" fill="#3566a8" stroke="#ffffff" stroke-width="1"/>
<circle cx="352.00" cy="229.50" r="4.00" fill="#3566a8" stroke="#ffffff" stroke-width="1"/>
<circle cx="352.00" cy="229.50" r="4.00" fill="#3566a8" stroke="#ffffff" stroke-width="1"/>
<text x="650.00" y="80.00" font-family="Helvetica,Arial,sans-serif" font-size="10" fill="#3566a8" text-anchor="start">math500</text>
<circle cx="444.65" cy="196.77" r="4.00" fill="#2d8c61" stroke="#ffffff" stroke-width="1"/>
<circle cx="537.29" cy="143.19" r="4.00" fill="#2d8c61" stroke="#ffffff" stroke-width="1"/>
<circle cx="629.94" cy="87.79" r="4.00" fill="#2d8c61" stroke="#ffffff" stroke-width="1"/>
<circle cx="259.35" cy="247.01" r="4.00" fill="#2d8c61" stroke="#ffffff" stroke-width="1"/>
<circle cx="166.71" cy="275.75" r="4.00" fill="#2d8c61" stroke="#ffffff" stroke-width="1"/>
<circle cx="74.06" cy="331.34" r="4.00" fill="#2d8c61" stroke="#ffffff" stroke-width="1"/>
<circle cx="444.65" cy="196.77" r="4.00" fill="#2d8c61" stroke="#ffffff" stroke-width="1"/>
<circle cx="537.29" cy="143.19" r="4.00" fill="#2d8c61" stroke="#ffffff" stroke-width="1"/>
<circle cx="629.94" cy="87.79" r="4.00" fill="#2d8c61" stroke="#ffffff" stroke-width="1"/>
<circle cx="259.35" cy="247.01" r="4.00" fill="#2d8c61" stroke="#ffffff" stroke-width="1"/>
<circle cx="166.71" cy="275.75" r="4.00" fill="#2d8c61" stroke="#ffffff" stroke-width="1"/>
<circle cx="74.06" cy="331.34" r="4.00" fill="#2d8c61" stroke="#ffffff" stroke-width="1"/>
<circle cx="444.65" cy="196.77" r="4.00" fill="#2d8c61" stroke="#ffffff" stroke-width="1"/>
<circle cx="537.29" cy="143.19" r="4.00" fill="#2d8c61" stroke="#ffffff" stroke-width="1"/>
<circle cx="629.94" cy="87.79" r="4.00" fill="#2d8c61" stroke="#ffffff" stroke-width="1"/>
<circle cx="259.35" cy="247.01" r="4.00" fill="#2d8c61" stroke="#ffffff" stroke-width="1"/>
<circle cx="166.71" cy="275.75" r="4.00" fill="#2d8c61" stroke="#ffffff" stroke-width="1"/>
<circle cx="74.06" cy="331.34" r="4.00" fill="#2d8c61" stroke="#ffffff" stroke-width="1"/>
<circle cx="440.23" cy="206.86" r="4.00" fill="#2d8c61" stroke="#ffffff" stroke-width="1"/>
<circle cx="528.46" cy="162.99" r="4.00" fill="#2d8c61" stroke="#ffffff" stroke-width="1"/>
<circle cx="616.69" cy="117.90" r="4.00" fill="#2d8c61" stroke="#ffffff" stroke-width="1"/>
<circle cx="263.77" cy="260.12" r="4.00" fill="#2d8c61" stroke="#ffffff" stroke-width="1"/>
<circle cx="175.54" cy="310.51" r="4.00" fill="#2d8c61" stroke="#ffffff" stroke-width="1"/>
<circle cx="87.31" cy="345.39" r="4.00" fill="#2d8c61" stroke="#ffffff" stroke-width="1"/>
<circle cx="440.23" cy="206.86" r="4.00" fill="#2d8c61" stroke="#ffffff" stroke-width="1"/>
<circle cx="528.46" cy="162.99" r="4.00" fill="#2d8c61" stroke="#ffffff" stroke-width="1"/>
<circle cx="616.69" cy="117.90" r="4.00" fill="#2d8c61" stroke="#ffffff" stroke-width="1"/>
<circle cx="263.77" cy="260.12" r="4.00" fill="#2d8c61" stroke="#ffffff" stroke-width="1"/>
<circle cx="175.54" cy="310.51" r="4.00" fill="#2d8c61" stroke="#ffffff" stroke-width="1"/>
<circle cx="87.31" cy="345.39" r="4.00" fill="#2d8c61" stroke="#ffffff" stroke-width="1"/>
<circle cx="440.23" cy="206.86" r="4.00" fill="#2d8c61" stroke="#ffffff" stroke-width="1"/>
<circle cx="528.46" cy="162.99" r="4.00" fill="#2d8c61" stroke="#ffffff" stroke-width="1"/>
<circle cx="616.69" cy="117.90" r="4.00" fill="#2d8c61" stroke="#ffffff" stroke-width="1"/>
<circle cx="263.77" cy="260.12" r="4.00" fill="#2d8c61" stroke="#ffffff" stroke-width="1"/>
<circle cx="175.54" cy="310.51" r="4.00" fill="#2d8c61" stroke="#ffffff" stroke-width="1"/>
<circle cx="87.31" cy="345.39" r="4.00" fill="#2d8c61" stroke="#ffffff" stroke-width="1"/>
<circle cx="445.33" cy="196.08" r="4.00" fill="#2d8c61" stroke="#ffffff" stroke-width="1"/>
<circle cx="538.67" cy="160.70" r="4.00" fill="#2d8c61" stroke="#ffffff" stroke-width="1"/>
<circle cx="632.00" cy="97.71" r="4.00" fill="#2d8c61" stroke="#ffffff" stroke-width="1"/>
<circle cx="258.67" cy="241.23" r="4.00" fill="#2d8c61" stroke="#ffffff" stroke-width="1"/>
<circle cx="165.33" cy="296.85" r="4.00" fill="#2d8c61" stroke="#ffffff" stroke-width="1"/>
<circle cx="72.00" cy="352.47" r="4.00" fill="#2d8c61" stroke="#ffffff" stroke-width="1"/>
<circle cx="445.33" cy="196.08" r="4.00" fill="#2d8c61" stroke="#ffffff" stroke-width="1"/>
<circle cx="538.67" cy="160.70" r="4.00" fill="#2d8c61" stroke="#ffffff" stroke-width="1"/>
<circle cx="632.00" cy="97.71" r="4.00" fill="#2d8c61" stroke="#ffffff" stroke-width="1"/>
<circle cx="258.67" cy="241.23" r="4.00" fill="#2d8c61" stroke="#ffffff" stroke-width="1"/>
<circle cx="165.33" cy="296.85" r="4.00" fill="#2d8c61" stroke="#ffffff" stroke-width="1"/>
<circle cx="72.00" cy="352.47" r="4.00" fill="#2d8c61" stroke="#ffffff" stroke-width="1"/>
<circle cx="445.33" cy="196.08" r="4.00" fill="#2d8c61" stroke="#ffffff" stroke-width="1"/>
<circle cx="538.67" cy="160.70" r="4.00" fill="#2d8c61" stroke="#ffffff" stroke-width="1"/>
<circle cx="632.00" cy="97.71" r="4.00" fill="#2d8c61" stroke="#ffffff" stroke-width="1"/>
<circle cx="258.67" cy="241.23" r="4.00" fill="#2d8c61" stroke="#ffffff" stroke-width="1"/>
<circle cx="165.33" cy="296.85" r="4.00" fill="#2d8c61" stroke="#ffffff" stroke-width="1"/>
<circle cx="72.00" cy="352.47" r="4.00" fill="#2d8c61" stroke="#ffffff" stroke-width="1"/>
<circle cx="435.33" cy="209.03" r="4.00" fill="#2d8c61" stroke="#ffffff" stroke-width="1"/>
<circle cx="518.65" cy="169.35" r="4.00" fill="#2d8c61" stroke="#ffffff" stroke-width="1"/>
<circle cx="601.98" cy="113.38" r="4.00" fill="#2d8c61" stroke="#ffffff" stroke-width="1"/>
<circle cx="268.67" cy="241.75" r="4.00" fill="#2d8c61" stroke="#ffffff" stroke-width="1"/>
<circle cx="185.35" cy="289.23" r="4.00" fill="#2d8c61" stroke="#ffffff" stroke-width="1"/>
<circle cx="102.02" cy="345.39" r="4.00" fill="#2d8c61" stroke="#ffffff" stroke-width="1"/>
<circle cx="435.33" cy="209.03" r="4.00" fill="#2d8c61" stroke="#ffffff" stroke-width="1"/>
<circle cx="518.65" cy="169.35" r="4.00" fill="#2d8c61" stroke="#ffffff" stroke-width="1"/>
<circle cx="601.98" cy="113.38" r="4.00" fill="#2d8c61" stroke="#ffffff" stroke-width="1"/>
<circle cx="268.67" cy="241.75" r="4.00" fill="#2d8c61" stroke="#ffffff" stroke-width="1"/>
<circle cx="185.35" cy="289.23" r="4.00" fill="#2d8c61" stroke="#ffffff" stroke-width="1"/>
<circle cx="102.02" cy="345.39" r="4.00" fill="#2d8c61" stroke="#ffffff" stroke-width="1"/>
<circle cx="435.33" cy="209.03" r="4.00" fill="#2d8c61" stroke="#ffffff" stroke-width="1"/>
<circle cx="518.65" cy="169.35" r="4.00" fill="#2d8c61" stroke="#ffffff" stroke-width="1"/>
<circle cx="601.98" cy="113.38" r="4.00" fill="#2d8c61" stroke="#ffffff" stroke-width="1"/>
<circle cx="268.67" cy="241.75" r="4.00" fill="#2d8c61" stroke="#ffffff" stroke-width="1"/>
<circle cx="185.35" cy="289.23" r="4.00" fill="#2d8c61" stroke="#ffffff" stroke-width="1"/>
<circle cx="102.02" cy="345.39" r="4.00" fill="#2d8c61" stroke="#ffffff" stroke-width="1"/>
<text x="650.00" y="98.00" font-family="Helvetica,Arial,sans-serif" font-size="10" fill="#2d8c61" text-anchor="start">swe</text>
</svg>
